<?xml version="1.0" encoding="utf-8"?>
<!-- Generator: Adobe Illustrator 16.0.0, SVG Export Plug-In . SVG Version: 6.00 Build 0)  -->
<!DOCTYPE svg PUBLIC "-//W3C//DTD SVG 1.1//EN" "http://www.w3.org/Graphics/SVG/1.1/DTD/svg11.dtd">
<svg version="1.1" id="Capa_1" xmlns="http://www.w3.org/2000/svg" xmlns:xlink="http://www.w3.org/1999/xlink" x="0px" y="0px"
	 width="29.5px" height="26.75px" viewBox="0 0 29.5 26.75" enable-background="new 0 0 29.5 26.75" xml:space="preserve">
<g>
	<defs>
		<path id="SVGID_1_" d="M11.853,18.62c0.132,0,0.265-0.044,0.375-0.132l5.794-4.66c0.141-0.113,0.223-0.284,0.223-0.467
			c0-0.18-0.082-0.353-0.223-0.465l-5.77-4.636c-0.257-0.206-0.633-0.165-0.839,0.092c-0.207,0.257-0.166,0.633,0.091,0.839
			l5.19,4.17l-5.216,4.196c-0.257,0.206-0.298,0.582-0.092,0.84C11.506,18.543,11.678,18.62,11.853,18.62z"/>
	</defs>
	<clipPath id="SVGID_2_">
		<use xlink:href="#SVGID_1_"  overflow="visible"/>
	</clipPath>
	<g clip-path="url(#SVGID_2_)">
		<defs>
			<rect id="SVGID_3_" x="-401.243" y="-2.626" width="432" height="32"/>
		</defs>
		<clipPath id="SVGID_4_">
			<use xlink:href="#SVGID_3_"  overflow="visible"/>
		</clipPath>
		<rect x="6.255" y="3.129" opacity="0.65" clip-path="url(#SVGID_4_)" width="16.989" height="20.491"/>
	</g>
</g>
</svg>
