<?xml version="1.0" encoding="utf-8"?>
<!-- Generator: Adobe Illustrator 16.0.0, SVG Export Plug-In . SVG Version: 6.00 Build 0)  -->
<!DOCTYPE svg PUBLIC "-//W3C//DTD SVG 1.1//EN" "http://www.w3.org/Graphics/SVG/1.1/DTD/svg11.dtd">
<svg version="1.1" id="Capa_1" xmlns="http://www.w3.org/2000/svg" xmlns:xlink="http://www.w3.org/1999/xlink" x="0px" y="0px"
	 width="29.5px" height="26.75px" viewBox="0 0 29.5 26.75" enable-background="new 0 0 29.5 26.75" xml:space="preserve">
<g>
	<defs>
		<path id="SVGID_1_" d="M2.75,9.378c0,4.068,3.06,9.481,12,14.997c8.94-5.516,12-10.929,12-14.997c0-7.962-9.648-9.028-12-3.737
			C12.412,0.379,2.75,1.371,2.75,9.378z M14.75,10.604c0.234-1.12,1.547-6.229,5.381-6.229c2.221,0,4.619,1.551,4.619,5.003
			c0,3.907-3.627,8.47-10,12.629c-6.373-4.159-10-8.722-10-12.629c0-3.484,2.369-5.005,4.577-5.005
			C13.25,4.373,14.472,9.499,14.75,10.604z"/>
	</defs>
	<clipPath id="SVGID_2_">
		<use xlink:href="#SVGID_1_"  overflow="visible"/>
	</clipPath>
	<g clip-path="url(#SVGID_2_)">
		<defs>
			<rect id="SVGID_3_" x="-651.25" y="-500.625" width="1440" height="1024"/>
		</defs>
		<clipPath id="SVGID_4_">
			<use xlink:href="#SVGID_3_"  overflow="visible"/>
		</clipPath>
		<rect x="-2.25" y="-2.625" clip-path="url(#SVGID_4_)" fill="#BC0033" width="34" height="32"/>
	</g>
</g>
</svg>
