<?xml version="1.0" encoding="utf-8"?>
<!-- Generator: Adobe Illustrator 16.0.0, SVG Export Plug-In . SVG Version: 6.00 Build 0)  -->
<!DOCTYPE svg PUBLIC "-//W3C//DTD SVG 1.1//EN" "http://www.w3.org/Graphics/SVG/1.1/DTD/svg11.dtd">
<svg version="1.1" id="Capa_1" xmlns="http://www.w3.org/2000/svg" xmlns:xlink="http://www.w3.org/1999/xlink" x="0px" y="0px"
	 width="17.188px" height="17.125px" viewBox="6.125 4.625 17.188 17.125" enable-background="new 6.125 4.625 17.188 17.125"
	 xml:space="preserve">
<g>
	<g>
		<defs>
			<path id="SVGID_1_" d="M15.417,13.375v-4h-1.334v5.333h4.667v-1.333H15.417z M14.75,5.375c-4.418,0-8,3.582-8,8
				c0,4.417,3.582,8,8,8s8-3.582,8-8C22.75,8.958,19.168,5.375,14.75,5.375z M14.75,6.709c3.676,0,6.667,2.991,6.667,6.667
				c0,3.675-2.991,6.667-6.667,6.667s-6.667-2.991-6.667-6.667S11.074,6.709,14.75,6.709z"/>
		</defs>
		<clipPath id="SVGID_2_">
			<use xlink:href="#SVGID_1_"  overflow="visible"/>
		</clipPath>
		<g clip-path="url(#SVGID_2_)">
			<g>
				<defs>
					<rect id="SVGID_3_" x="-759.25" y="-356.625" width="1440" height="1024"/>
				</defs>
				<clipPath id="SVGID_4_">
					<use xlink:href="#SVGID_3_"  overflow="visible"/>
				</clipPath>
				<rect x="1.75" y="0.375" clip-path="url(#SVGID_4_)" fill="#606060" width="26" height="26"/>
			</g>
		</g>
	</g>
</g>
</svg>
